<svg width="194" height="184" viewBox="0 0 194 184" fill="none" xmlns="http://www.w3.org/2000/svg">
<path d="M96.8789 135.579C104.629 135.579 111.532 133.279 117.587 128.679C123.642 124.079 128.042 118.147 130.787 110.884H62.9713C65.7162 118.147 70.1161 124.079 76.171 128.679C82.226 133.279 89.1286 135.579 96.8789 135.579ZM72.6592 96.8421C76.6958 96.8421 80.1269 95.4298 82.9526 92.6053C85.7782 89.7807 87.191 86.3509 87.191 82.3158C87.191 78.2807 85.7782 74.8509 82.9526 72.0263C80.1269 69.2018 76.6958 67.7895 72.6592 67.7895C68.6226 67.7895 65.1914 69.2018 62.3658 72.0263C59.5402 74.8509 58.1273 78.2807 58.1273 82.3158C58.1273 86.3509 59.5402 89.7807 62.3658 92.6053C65.1914 95.4298 68.6226 96.8421 72.6592 96.8421ZM121.099 96.8421C125.135 96.8421 128.566 95.4298 131.392 92.6053C134.218 89.7807 135.63 86.3509 135.63 82.3158C135.63 78.2807 134.218 74.8509 131.392 72.0263C128.566 69.2018 125.135 67.7895 121.099 67.7895C117.062 67.7895 113.631 69.2018 110.805 72.0263C107.98 74.8509 106.567 78.2807 106.567 82.3158C106.567 86.3509 107.98 89.7807 110.805 92.6053C113.631 95.4298 117.062 96.8421 121.099 96.8421ZM54.4944 42.6105L81.6205 7.50526C83.5581 4.92281 85.8589 3.02632 88.5231 1.81579C91.1873 0.605263 93.9725 0 96.8789 0C99.7853 0 102.571 0.605263 105.235 1.81579C107.899 3.02632 110.2 4.92281 112.137 7.50526L139.263 42.6105L180.437 56.4105C184.635 57.7018 187.945 60.0825 190.367 63.5526C192.789 67.0228 194 70.8561 194 75.0526C194 76.9895 193.717 78.9263 193.152 80.8632C192.587 82.8 191.659 84.6561 190.367 86.4316L163.725 124.2L164.694 163.905C164.856 169.554 162.999 174.316 159.124 178.189C155.248 182.063 150.727 184 145.561 184C145.238 184 143.462 183.758 140.232 183.274L96.8789 171.168L53.5256 183.274C52.7183 183.597 51.8302 183.798 50.8614 183.879C49.8926 183.96 49.0046 184 48.1973 184C43.0304 184 38.5094 182.063 34.6342 178.189C30.7591 174.316 28.9022 169.554 29.0637 163.905L30.0325 123.958L3.63296 86.4316C2.34124 84.6561 1.41282 82.8 0.84769 80.8632C0.282563 78.9263 0 76.9895 0 75.0526C0 71.0175 1.17062 67.2649 3.51186 63.7947C5.8531 60.3246 9.12276 57.8632 13.3208 56.4105L54.4944 42.6105Z" fill="#007AFF"/>
</svg>
