<svg width="28" height="28" viewBox="0 0 28 28" fill="none" xmlns="http://www.w3.org/2000/svg">
<mask id="mask0_350_725" style="mask-type:alpha" maskUnits="userSpaceOnUse" x="0" y="0" width="28" height="28">
<rect width="28" height="28" fill="currentColor"/>
</mask>
<g mask="url(#mask0_350_725)">
<path d="M14 16.3333C13.6694 16.3333 13.3924 16.2215 13.1687 15.9979C12.9451 15.7743 12.8333 15.4972 12.8333 15.1667C12.8333 14.8361 12.9451 14.559 13.1687 14.3354C13.3924 14.1118 13.6694 14 14 14C14.3306 14 14.6076 14.1118 14.8313 14.3354C15.0549 14.559 15.1667 14.8361 15.1667 15.1667C15.1667 15.4972 15.0549 15.7743 14.8313 15.9979C14.6076 16.2215 14.3306 16.3333 14 16.3333ZM9.33333 16.3333C9.00278 16.3333 8.72569 16.2215 8.50208 15.9979C8.27847 15.7743 8.16667 15.4972 8.16667 15.1667C8.16667 14.8361 8.27847 14.559 8.50208 14.3354C8.72569 14.1118 9.00278 14 9.33333 14C9.66389 14 9.94097 14.1118 10.1646 14.3354C10.3882 14.559 10.5 14.8361 10.5 15.1667C10.5 15.4972 10.3882 15.7743 10.1646 15.9979C9.94097 16.2215 9.66389 16.3333 9.33333 16.3333ZM18.6667 16.3333C18.3361 16.3333 18.059 16.2215 17.8354 15.9979C17.6118 15.7743 17.5 15.4972 17.5 15.1667C17.5 14.8361 17.6118 14.559 17.8354 14.3354C18.059 14.1118 18.3361 14 18.6667 14C18.9972 14 19.2743 14.1118 19.4979 14.3354C19.7215 14.559 19.8333 14.8361 19.8333 15.1667C19.8333 15.4972 19.7215 15.7743 19.4979 15.9979C19.2743 16.2215 18.9972 16.3333 18.6667 16.3333ZM14 21C13.6694 21 13.3924 20.8882 13.1687 20.6646C12.9451 20.441 12.8333 20.1639 12.8333 19.8333C12.8333 19.5028 12.9451 19.2257 13.1687 19.0021C13.3924 18.7785 13.6694 18.6667 14 18.6667C14.3306 18.6667 14.6076 18.7785 14.8313 19.0021C15.0549 19.2257 15.1667 19.5028 15.1667 19.8333C15.1667 20.1639 15.0549 20.441 14.8313 20.6646C14.6076 20.8882 14.3306 21 14 21ZM9.33333 21C9.00278 21 8.72569 20.8882 8.50208 20.6646C8.27847 20.441 8.16667 20.1639 8.16667 19.8333C8.16667 19.5028 8.27847 19.2257 8.50208 19.0021C8.72569 18.7785 9.00278 18.6667 9.33333 18.6667C9.66389 18.6667 9.94097 18.7785 10.1646 19.0021C10.3882 19.2257 10.5 19.5028 10.5 19.8333C10.5 20.1639 10.3882 20.441 10.1646 20.6646C9.94097 20.8882 9.66389 21 9.33333 21ZM18.6667 21C18.3361 21 18.059 20.8882 17.8354 20.6646C17.6118 20.441 17.5 20.1639 17.5 19.8333C17.5 19.5028 17.6118 19.2257 17.8354 19.0021C18.059 18.7785 18.3361 18.6667 18.6667 18.6667C18.9972 18.6667 19.2743 18.7785 19.4979 19.0021C19.7215 19.2257 19.8333 19.5028 19.8333 19.8333C19.8333 20.1639 19.7215 20.441 19.4979 20.6646C19.2743 20.8882 18.9972 21 18.6667 21ZM5.83333 25.6667C5.19167 25.6667 4.64236 25.4382 4.18542 24.9813C3.72847 24.5243 3.5 23.975 3.5 23.3333V7C3.5 6.35834 3.72847 5.80903 4.18542 5.35209C4.64236 4.89514 5.19167 4.66667 5.83333 4.66667H7V2.33334H9.33333V4.66667H18.6667V2.33334H21V4.66667H22.1667C22.8083 4.66667 23.3576 4.89514 23.8146 5.35209C24.2715 5.80903 24.5 6.35834 24.5 7V23.3333C24.5 23.975 24.2715 24.5243 23.8146 24.9813C23.3576 25.4382 22.8083 25.6667 22.1667 25.6667H5.83333ZM5.83333 23.3333H22.1667V11.6667H5.83333V23.3333Z" fill="currentColor"/>
</g>
</svg>
