<svg width="24" height="23" viewBox="0 0 24 23" fill="none" xmlns="http://www.w3.org/2000/svg">
<path d="M11.6667 16.3333C12.6 16.3333 13.4312 16.0562 14.1604 15.5021C14.8896 14.9479 15.4194 14.2333 15.75 13.3583H7.58333C7.91389 14.2333 8.44375 14.9479 9.17292 15.5021C9.90208 16.0562 10.7333 16.3333 11.6667 16.3333ZM8.75 11.6667C9.23611 11.6667 9.64931 11.4965 9.98958 11.1562C10.3299 10.816 10.5 10.4028 10.5 9.91667C10.5 9.43056 10.3299 9.01736 9.98958 8.67708C9.64931 8.33681 9.23611 8.16667 8.75 8.16667C8.26389 8.16667 7.85069 8.33681 7.51042 8.67708C7.17014 9.01736 7 9.43056 7 9.91667C7 10.4028 7.17014 10.816 7.51042 11.1562C7.85069 11.4965 8.26389 11.6667 8.75 11.6667ZM14.5833 11.6667C15.0694 11.6667 15.4826 11.4965 15.8229 11.1562C16.1632 10.816 16.3333 10.4028 16.3333 9.91667C16.3333 9.43056 16.1632 9.01736 15.8229 8.67708C15.4826 8.33681 15.0694 8.16667 14.5833 8.16667C14.0972 8.16667 13.684 8.33681 13.3438 8.67708C13.0035 9.01736 12.8333 9.43056 12.8333 9.91667C12.8333 10.4028 13.0035 10.816 13.3438 11.1562C13.684 11.4965 14.0972 11.6667 14.5833 11.6667ZM6.5625 5.13333L9.82917 0.904167C10.0625 0.593056 10.3396 0.364583 10.6604 0.21875C10.9812 0.0729167 11.3167 0 11.6667 0C12.0167 0 12.3521 0.0729167 12.6729 0.21875C12.9937 0.364583 13.2708 0.593056 13.5042 0.904167L16.7708 5.13333L21.7292 6.79583C22.2347 6.95139 22.6333 7.23819 22.925 7.65625C23.2167 8.07431 23.3625 8.53611 23.3625 9.04167C23.3625 9.275 23.3285 9.50833 23.2604 9.74167C23.1924 9.975 23.0806 10.1986 22.925 10.4125L19.7167 14.9625L19.8333 19.7458C19.8528 20.4264 19.6292 21 19.1625 21.4667C18.6958 21.9333 18.1514 22.1667 17.5292 22.1667C17.4903 22.1667 17.2764 22.1375 16.8875 22.0792L11.6667 20.6208L6.44583 22.0792C6.34861 22.1181 6.24167 22.1424 6.125 22.1521C6.00833 22.1618 5.90139 22.1667 5.80417 22.1667C5.18194 22.1667 4.6375 21.9333 4.17083 21.4667C3.70417 21 3.48056 20.4264 3.5 19.7458L3.61667 14.9333L0.4375 10.4125C0.281944 10.1986 0.170139 9.975 0.102083 9.74167C0.0340278 9.50833 0 9.275 0 9.04167C0 8.55556 0.140972 8.10347 0.422917 7.68542C0.704861 7.26736 1.09861 6.97083 1.60417 6.79583L6.5625 5.13333Z" fill="currentColor"/>
</svg>
