<svg width="28" height="28" viewBox="0 0 28 28" fill="none" xmlns="http://www.w3.org/2000/svg">
<mask id="mask0_350_734" style="mask-type:alpha" maskUnits="userSpaceOnUse" x="0" y="0" width="28" height="28">
<rect width="28" height="28" fill="currentColor"/>
</mask>
<g mask="url(#mask0_350_734)">
<path d="M16.333 15.1667H22.1663V12.8333H16.333V15.1667ZM16.333 11.6667H22.1663V9.33333H16.333V11.6667ZM5.83301 18.6667H15.1663V18.025C15.1663 17.15 14.7386 16.4549 13.883 15.9396C13.0275 15.4243 11.8997 15.1667 10.4997 15.1667C9.09967 15.1667 7.9719 15.4243 7.11634 15.9396C6.26079 16.4549 5.83301 17.15 5.83301 18.025V18.6667ZM10.4997 14C11.1413 14 11.6906 13.7715 12.1476 13.3146C12.6045 12.8576 12.833 12.3083 12.833 11.6667C12.833 11.025 12.6045 10.4757 12.1476 10.0187C11.6906 9.5618 11.1413 9.33333 10.4997 9.33333C9.85801 9.33333 9.3087 9.5618 8.85176 10.0187C8.39481 10.4757 8.16634 11.025 8.16634 11.6667C8.16634 12.3083 8.39481 12.8576 8.85176 13.3146C9.3087 13.7715 9.85801 14 10.4997 14ZM4.66634 23.3333C4.02467 23.3333 3.47537 23.1049 3.01842 22.6479C2.56148 22.191 2.33301 21.6417 2.33301 21V7C2.33301 6.35833 2.56148 5.80903 3.01842 5.35208C3.47537 4.89514 4.02467 4.66666 4.66634 4.66666H23.333C23.9747 4.66666 24.524 4.89514 24.9809 5.35208C25.4379 5.80903 25.6663 6.35833 25.6663 7V21C25.6663 21.6417 25.4379 22.191 24.9809 22.6479C24.524 23.1049 23.9747 23.3333 23.333 23.3333H4.66634Z" fill="currentColor"/>
</g>
</svg>
