<svg class="svg-icon" style="width: 1em; height: 1em;vertical-align: middle;fill: currentColor;overflow: hidden;" viewBox="0 0 1024 1024" version="1.1" xmlns="http://www.w3.org/2000/svg"><path d="M512 672c70.4 0 128-57.6 128-128V224c0-70.4-57.6-128-128-128s-128 57.6-128 128v320c0 70.4 57.6 128 128 128z"  /><path d="M704 384c-15.4 0-28 12.6-28 28v138c0 90.4-73.6 164-164 164s-164-73.6-164-164v-138c0-15.4-12.6-28-28-28s-28 12.6-28 28v138c0 111.8 83.8 204.4 192 218.2V872h-72c-15.4 0-28 12.6-28 28s12.6 28 28 28h200c15.4 0 28-12.6 28-28s-12.6-28-28-28h-72v-103.8c108.2-13.8 192-106.4 192-218.2v-138c0-15.4-12.6-28-28-28z"  /></svg>