<svg width="28" height="28" viewBox="0 0 28 28" fill="none" xmlns="http://www.w3.org/2000/svg">
<mask id="mask0_350_737" style="mask-type:alpha" maskUnits="userSpaceOnUse" x="0" y="0" width="28" height="28">
<rect width="28" height="28" fill="currentColor"/>
</mask>
<g mask="url(#mask0_350_737)">
<path d="M14.0003 10.5L9.91699 6.41667L14.0003 2.33334L18.0837 6.41667L14.0003 10.5ZM1.16699 23.3333V18.6667C1.16699 18.0056 1.39546 17.4514 1.85241 17.0042C2.30935 16.5569 2.85866 16.3333 3.50033 16.3333H7.32116C7.71005 16.3333 8.07949 16.4306 8.42949 16.625C8.77949 16.8194 9.06144 17.0819 9.27533 17.4125C9.83921 18.1708 10.5344 18.7639 11.3607 19.1917C12.1871 19.6194 13.067 19.8333 14.0003 19.8333C14.9531 19.8333 15.8427 19.6194 16.6691 19.1917C17.4955 18.7639 18.1809 18.1708 18.7253 17.4125C18.9781 17.0819 19.2746 16.8194 19.6149 16.625C19.9552 16.4306 20.31 16.3333 20.6795 16.3333H24.5003C25.1614 16.3333 25.7156 16.5569 26.1628 17.0042C26.61 17.4514 26.8337 18.0056 26.8337 18.6667V23.3333H18.667V20.6792C17.9864 21.1653 17.2524 21.5347 16.4649 21.7875C15.6774 22.0403 14.8559 22.1667 14.0003 22.1667C13.1642 22.1667 12.3475 22.0354 11.5503 21.7729C10.7531 21.5104 10.0142 21.1361 9.33366 20.65V23.3333H1.16699ZM4.66699 15.1667C3.69477 15.1667 2.86838 14.8264 2.18783 14.1458C1.50727 13.4653 1.16699 12.6389 1.16699 11.6667C1.16699 10.675 1.50727 9.84375 2.18783 9.17292C2.86838 8.50209 3.69477 8.16667 4.66699 8.16667C5.65866 8.16667 6.48991 8.50209 7.16074 9.17292C7.83158 9.84375 8.16699 10.675 8.16699 11.6667C8.16699 12.6389 7.83158 13.4653 7.16074 14.1458C6.48991 14.8264 5.65866 15.1667 4.66699 15.1667ZM23.3337 15.1667C22.3614 15.1667 21.535 14.8264 20.8545 14.1458C20.1739 13.4653 19.8337 12.6389 19.8337 11.6667C19.8337 10.675 20.1739 9.84375 20.8545 9.17292C21.535 8.50209 22.3614 8.16667 23.3337 8.16667C24.3253 8.16667 25.1566 8.50209 25.8274 9.17292C26.4982 9.84375 26.8337 10.675 26.8337 11.6667C26.8337 12.6389 26.4982 13.4653 25.8274 14.1458C25.1566 14.8264 24.3253 15.1667 23.3337 15.1667Z" fill="currentColor"/>
</g>
</svg>
