<svg width="9" height="9" viewBox="0 0 9 9" fill="none" xmlns="http://www.w3.org/2000/svg">
<mask id="mask0_351_995" style="mask-type:alpha" maskUnits="userSpaceOnUse" x="0" y="0" width="9" height="9">
<rect width="9" height="9" fill="white"/>
</mask>
<g mask="url(#mask0_351_995)">
<path d="M8.025 5.34375L5.34375 8.025C5.26875 8.1 5.18437 8.15625 5.09062 8.19375C4.99687 8.23125 4.90312 8.25 4.80937 8.25C4.71562 8.25 4.62187 8.23125 4.52812 8.19375C4.43437 8.15625 4.35 8.1 4.275 8.025L0.965625 4.71562C0.896875 4.64687 0.84375 4.56719 0.80625 4.47656C0.76875 4.38594 0.75 4.29063 0.75 4.19063V1.5C0.75 1.29375 0.823438 1.11719 0.970313 0.970313C1.11719 0.823438 1.29375 0.75 1.5 0.75H4.19063C4.29063 0.75 4.3875 0.770312 4.48125 0.810938C4.575 0.851563 4.65625 0.90625 4.725 0.975L8.025 4.28438C8.1 4.35938 8.15469 4.44375 8.18906 4.5375C8.22344 4.63125 8.24063 4.725 8.24063 4.81875C8.24063 4.9125 8.22344 5.00469 8.18906 5.09531C8.15469 5.18594 8.1 5.26875 8.025 5.34375ZM4.80937 7.5L7.49063 4.81875L4.18125 1.5H1.5V4.18125L4.80937 7.5ZM2.4375 3C2.59375 3 2.72656 2.94531 2.83594 2.83594C2.94531 2.72656 3 2.59375 3 2.4375C3 2.28125 2.94531 2.14844 2.83594 2.03906C2.72656 1.92969 2.59375 1.875 2.4375 1.875C2.28125 1.875 2.14844 1.92969 2.03906 2.03906C1.92969 2.14844 1.875 2.28125 1.875 2.4375C1.875 2.59375 1.92969 2.72656 2.03906 2.83594C2.14844 2.94531 2.28125 3 2.4375 3Z" fill="white"/>
</g>
</svg>
